<?xml version="1.0" encoding="utf-8"?>
<!-- Generator: Adobe Illustrator 24.1.1, SVG Export Plug-In . SVG Version: 6.00 Build 0)  -->
<svg version="1.1" xmlns="http://www.w3.org/2000/svg" xmlns:xlink="http://www.w3.org/1999/xlink" x="0px" y="0px"
	 viewBox="0 0 500 1000" style="enable-background:new 0 0 500 1000;" xml:space="preserve">
<style type="text/css">
	.st0{fill:#A51DED;}
</style>
<g id="Layer_1">
	<path class="st0" d="M0,416c34.1,5.7,100.8-82,132-144c9.3-18.5,12.5-28.8,25-43c40.1-45.5,94.6-38.7,144-55
		C384.1,146.6,457.3,52.4,445,0C425-85.4,151.3-175.5,4-47C-158.1,94.4-58.8,406.1,0,416z"/>
</g>
<g id="Layer_2">
	<path class="st0" d="M114,1000C66,898,274.8,674.9,500,587c54.7-21.4,212.3-82.8,263-24c66.9,77.6-50.9,365.8-275,463
		C348.6,1086.5,151.7,1080.2,114,1000z"/>
</g>
</svg>
